<svg width="14" height="14" viewBox="0 0 14 14" fill="none" xmlns="http://www.w3.org/2000/svg">
<rect width="14" height="14" rx="3" fill="#089BD6"/>
<path d="M5.41997 8.47216L10.9006 3.18708C11.03 3.06236 11.1809 3 11.3533 3C11.5258 3 11.6767 3.06236 11.806 3.18708C11.9353 3.3118 12 3.46001 12 3.63171C12 3.80342 11.9353 3.95142 11.806 4.07572L5.87265 9.81292C5.74332 9.93764 5.59242 10 5.41997 10C5.24752 10 5.09663 9.93764 4.96729 9.81292L2.18654 7.1314C2.05721 7.00668 1.99512 6.85868 2.0003 6.68739C2.00547 6.51611 2.07294 6.3679 2.20271 6.24276C2.33248 6.11762 2.48618 6.05526 2.6638 6.05568C2.84142 6.05609 2.9949 6.11846 3.12424 6.24276L5.41997 8.47216Z" fill="white"/>
</svg>
