<svg width="21" height="21" viewBox="0 0 21 21" fill="none" xmlns="http://www.w3.org/2000/svg">
<g clip-path="url(#clip0_10_33)">
<path d="M10.5 0C7.71586 0 5.04328 1.10693 3.07617 3.07535C1.10705 5.04456 0.00056347 7.71518 0 10.5C0 13.2836 1.10742 15.9562 3.07617 17.9246C5.04328 19.8931 7.71586 21 10.5 21C13.2841 21 15.9567 19.8931 17.9238 17.9246C19.8926 15.9562 21 13.2836 21 10.5C21 7.71635 19.8926 5.04377 17.9238 3.07535C15.9567 1.10693 13.2841 0 10.5 0Z" fill="url(#paint0_linear_10_33)"/>
<path d="M4.75299 10.389C7.81439 9.05554 9.85533 8.17638 10.8758 7.75157C13.7928 6.53866 14.3982 6.328 14.7936 6.32086C14.8806 6.31947 15.0742 6.34096 15.2005 6.44309C15.3055 6.52922 15.335 6.64571 15.3498 6.72749C15.3629 6.8092 15.381 6.99541 15.3662 7.14077C15.2087 8.80108 14.5245 12.8301 14.1767 14.6898C14.0307 15.4766 13.7403 15.7404 13.4598 15.7662C12.8495 15.8223 12.3868 15.3632 11.7962 14.9762C10.8725 14.3703 10.3508 13.9933 9.45338 13.4022C8.4165 12.7191 9.08916 12.3435 9.67978 11.7299C9.834 11.5693 12.5213 9.12559 12.5722 8.90394C12.5788 8.87622 12.5853 8.77286 12.523 8.71839C12.4623 8.66376 12.372 8.68246 12.3064 8.69723C12.2129 8.71823 10.738 9.69407 7.87674 11.6246C7.45838 11.9124 7.07939 12.0526 6.73814 12.0452C6.36408 12.0372 5.6422 11.8333 5.10572 11.659C4.44947 11.4453 3.92611 11.3322 3.97205 10.9692C3.99502 10.7802 4.25588 10.5867 4.75299 10.389Z" fill="white"/>
</g>
<defs>
<linearGradient id="paint0_linear_10_33" x1="1050" y1="0" x2="1050" y2="2100" gradientUnits="userSpaceOnUse">
<stop stop-color="#2AABEE"/>
<stop offset="1" stop-color="#229ED9"/>
</linearGradient>
<clipPath id="clip0_10_33">
<rect width="21" height="21" fill="white"/>
</clipPath>
</defs>
</svg>
